<?xml version="1.0" encoding="UTF-8" standalone="no"?>
<!DOCTYPE svg PUBLIC "-//W3C//DTD SVG 1.1//EN"
 "http://www.w3.org/Graphics/SVG/1.1/DTD/svg11.dtd">
<!-- Generated by graphviz version 2.40.1 (20161225.0304)
 -->
<!-- Title: dependencies Pages: 1 -->
<svg width="1125pt" height="284pt"
 viewBox="0.00 0.00 1125.00 284.00" xmlns="http://www.w3.org/2000/svg" xmlns:xlink="http://www.w3.org/1999/xlink">
<g id="graph0" class="graph" transform="scale(1 1) rotate(0) translate(4 280)">
<title>dependencies</title>
<polygon fill="#ffffff" stroke="transparent" points="-4,4 -4,-280 1121,-280 1121,4 -4,4"/>
<text text-anchor="start" x="537.5091" y="-42.4" font-family="sans-serif" font-weight="bold" font-size="14.00" fill="#000000">Legend</text>
<polygon fill="#ffffb3" stroke="transparent" points="324.5,-10 324.5,-30 344.5,-30 344.5,-10 324.5,-10"/>
<text text-anchor="start" x="348.129" y="-15.4" font-family="sans-serif" font-size="14.00" fill="#000000"> &#160;Declarations</text>
<polygon fill="#8dd3c7" stroke="transparent" points="437.5,-10 437.5,-30 457.5,-30 457.5,-10 437.5,-10"/>
<text text-anchor="start" x="461.2251" y="-15.4" font-family="sans-serif" font-size="14.00" fill="#000000"> &#160;Module</text>
<polygon fill="#80b1d3" stroke="transparent" points="523.5,-10 523.5,-30 543.5,-30 543.5,-10 523.5,-10"/>
<text text-anchor="start" x="547.2812" y="-15.4" font-family="sans-serif" font-size="14.00" fill="#000000"> &#160;Bootstrap</text>
<polygon fill="#fdb462" stroke="transparent" points="620.5,-10 620.5,-30 640.5,-30 640.5,-10 620.5,-10"/>
<text text-anchor="start" x="644.1732" y="-15.4" font-family="sans-serif" font-size="14.00" fill="#000000"> &#160;Providers</text>
<polygon fill="#fb8072" stroke="transparent" points="716.5,-10 716.5,-30 736.5,-30 736.5,-10 716.5,-10"/>
<text text-anchor="start" x="740.2258" y="-15.4" font-family="sans-serif" font-size="14.00" fill="#000000"> &#160;Exports</text>
<g id="clust1" class="cluster">
<title>cluster_AppModule</title>
<polygon fill="none" stroke="#000000" stroke-dasharray="1,5" points="8,-70 8,-268 1109,-268 1109,-70 8,-70"/>
</g>
<g id="clust2" class="cluster">
<title>cluster_AppModule_declarations</title>
<polygon fill="none" stroke="#000000" points="668,-78 668,-130 1101,-130 1101,-78 668,-78"/>
</g>
<g id="clust6" class="cluster">
<title>cluster_AppModule_imports</title>
<polygon fill="none" stroke="#000000" points="516,-78 516,-130 660,-130 660,-78 516,-78"/>
</g>
<g id="clust8" class="cluster">
<title>cluster_AppModule_bootstrap</title>
<polygon fill="none" stroke="#000000" points="526,-208 526,-260 650,-260 650,-208 526,-208"/>
</g>
<g id="clust9" class="cluster">
<title>cluster_AppModule_providers</title>
<polygon fill="none" stroke="#000000" points="16,-78 16,-130 508,-130 508,-78 16,-78"/>
</g>
<!-- AppComponent -->
<g id="node1" class="node">
<title>AppComponent</title>
<polygon fill="#ffffb3" stroke="#000000" points="1092.9399,-122 987.0601,-122 987.0601,-86 1092.9399,-86 1092.9399,-122"/>
<text text-anchor="middle" x="1040" y="-99.8" font-family="Times,serif" font-size="14.00" fill="#000000">AppComponent</text>
</g>
<!-- AppModule -->
<g id="node4" class="node">
<title>AppModule</title>
<polygon fill="#8dd3c7" stroke="#000000" points="629.6571,-187 626.6571,-191 605.6571,-191 602.6571,-187 546.3429,-187 546.3429,-151 629.6571,-151 629.6571,-187"/>
<text text-anchor="middle" x="588" y="-164.8" font-family="Times,serif" font-size="14.00" fill="#000000">AppModule</text>
</g>
<!-- AppComponent&#45;&gt;AppModule -->
<g id="edge1" class="edge">
<title>AppComponent&#45;&gt;AppModule</title>
<path fill="none" stroke="#000000" d="M1040,-122.2921C1040,-144.2057 1040,-178 1040,-178 1040,-178 639.7129,-178 639.7129,-178"/>
<polygon fill="#000000" stroke="#000000" points="639.7129,-174.5001 629.7129,-178 639.7129,-181.5001 639.7129,-174.5001"/>
</g>
<!-- EmailValidatorDirective -->
<g id="node2" class="node">
<title>EmailValidatorDirective</title>
<polygon fill="#ffffb3" stroke="#000000" points="969.3905,-122 814.6095,-122 814.6095,-86 969.3905,-86 969.3905,-122"/>
<text text-anchor="middle" x="892" y="-99.8" font-family="Times,serif" font-size="14.00" fill="#000000">EmailValidatorDirective</text>
</g>
<!-- EmailValidatorDirective&#45;&gt;AppModule -->
<g id="edge2" class="edge">
<title>EmailValidatorDirective&#45;&gt;AppModule</title>
<path fill="none" stroke="#000000" d="M892,-122.1061C892,-141.3391 892,-169 892,-169 892,-169 639.9507,-169 639.9507,-169"/>
<polygon fill="#000000" stroke="#000000" points="639.9508,-165.5001 629.9507,-169 639.9507,-172.5001 639.9508,-165.5001"/>
</g>
<!-- LayoutComponent -->
<g id="node3" class="node">
<title>LayoutComponent</title>
<polygon fill="#ffffb3" stroke="#000000" points="796.4902,-122 675.5098,-122 675.5098,-86 796.4902,-86 796.4902,-122"/>
<text text-anchor="middle" x="736" y="-99.8" font-family="Times,serif" font-size="14.00" fill="#000000">LayoutComponent</text>
</g>
<!-- LayoutComponent&#45;&gt;AppModule -->
<g id="edge3" class="edge">
<title>LayoutComponent&#45;&gt;AppModule</title>
<path fill="none" stroke="#000000" d="M736,-122.027C736,-138.3976 736,-160 736,-160 736,-160 640.015,-160 640.015,-160"/>
<polygon fill="#000000" stroke="#000000" points="640.015,-156.5001 630.015,-160 640.0149,-163.5001 640.015,-156.5001"/>
</g>
<!-- AppComponent  -->
<g id="node6" class="node">
<title>AppComponent </title>
<polygon fill="#80b1d3" stroke="#000000" points="642.439,-252 533.561,-252 533.561,-216 642.439,-216 642.439,-252"/>
<text text-anchor="middle" x="588" y="-229.8" font-family="Times,serif" font-size="14.00" fill="#000000">AppComponent </text>
</g>
<!-- AppModule&#45;&gt;AppComponent  -->
<g id="edge5" class="edge">
<title>AppModule&#45;&gt;AppComponent </title>
<path fill="none" stroke="#000000" stroke-dasharray="1,5" d="M588,-187.1061C588,-187.1061 588,-205.991 588,-205.991"/>
<polygon fill="#000000" stroke="#000000" points="584.5001,-205.9909 588,-215.991 591.5001,-205.991 584.5001,-205.9909"/>
</g>
<!-- AppRoutingModule -->
<g id="node5" class="node">
<title>AppRoutingModule</title>
<polygon fill="#8dd3c7" stroke="#000000" points="652.2744,-122 649.2744,-126 628.2744,-126 625.2744,-122 523.7256,-122 523.7256,-86 652.2744,-86 652.2744,-122"/>
<text text-anchor="middle" x="588" y="-99.8" font-family="Times,serif" font-size="14.00" fill="#000000">AppRoutingModule</text>
</g>
<!-- AppRoutingModule&#45;&gt;AppModule -->
<g id="edge4" class="edge">
<title>AppRoutingModule&#45;&gt;AppModule</title>
<path fill="none" stroke="#000000" d="M588,-122.1061C588,-122.1061 588,-140.991 588,-140.991"/>
<polygon fill="#000000" stroke="#000000" points="584.5001,-140.9909 588,-150.991 591.5001,-140.991 584.5001,-140.9909"/>
</g>
<!-- AuthGuard -->
<g id="node7" class="node">
<title>AuthGuard</title>
<ellipse fill="#fdb462" stroke="#000000" cx="446" cy="-104" rx="54.4566" ry="18"/>
<text text-anchor="middle" x="446" y="-99.8" font-family="Times,serif" font-size="14.00" fill="#000000">AuthGuard</text>
</g>
<!-- AuthGuard&#45;&gt;AppModule -->
<g id="edge6" class="edge">
<title>AuthGuard&#45;&gt;AppModule</title>
<path fill="none" stroke="#000000" d="M446,-122.027C446,-138.3976 446,-160 446,-160 446,-160 536.1633,-160 536.1633,-160"/>
<polygon fill="#000000" stroke="#000000" points="536.1634,-163.5001 546.1633,-160 536.1633,-156.5001 536.1634,-163.5001"/>
</g>
<!-- Authentication -->
<g id="node8" class="node">
<title>Authentication</title>
<ellipse fill="#fdb462" stroke="#000000" cx="305" cy="-104" rx="68.3575" ry="18"/>
<text text-anchor="middle" x="305" y="-99.8" font-family="Times,serif" font-size="14.00" fill="#000000">Authentication</text>
</g>
<!-- Authentication&#45;&gt;AppModule -->
<g id="edge7" class="edge">
<title>Authentication&#45;&gt;AppModule</title>
<path fill="none" stroke="#000000" d="M305,-122.1061C305,-141.3391 305,-169 305,-169 305,-169 536.2424,-169 536.2424,-169"/>
<polygon fill="#000000" stroke="#000000" points="536.2424,-172.5001 546.2424,-169 536.2423,-165.5001 536.2424,-172.5001"/>
</g>
<!-- AuthenticationService -->
<g id="node9" class="node">
<title>AuthenticationService</title>
<ellipse fill="#fdb462" stroke="#000000" cx="121" cy="-104" rx="97.2683" ry="18"/>
<text text-anchor="middle" x="121" y="-99.8" font-family="Times,serif" font-size="14.00" fill="#000000">AuthenticationService</text>
</g>
<!-- AuthenticationService&#45;&gt;AppModule -->
<g id="edge8" class="edge">
<title>AuthenticationService&#45;&gt;AppModule</title>
<path fill="none" stroke="#000000" d="M121,-122.2921C121,-144.2057 121,-178 121,-178 121,-178 536.1459,-178 536.1459,-178"/>
<polygon fill="#000000" stroke="#000000" points="536.1459,-181.5001 546.1459,-178 536.1458,-174.5001 536.1459,-181.5001"/>
</g>
</g>
</svg>
