<?xml version="1.0" encoding="UTF-8" standalone="no"?>
<!DOCTYPE svg PUBLIC "-//W3C//DTD SVG 1.1//EN"
 "http://www.w3.org/Graphics/SVG/1.1/DTD/svg11.dtd">
<!-- Generated by graphviz version 2.40.1 (20161225.0304)
 -->
<!-- Title: dependencies Pages: 1 -->
<svg width="1401pt" height="284pt"
 viewBox="0.00 0.00 1401.00 284.00" xmlns="http://www.w3.org/2000/svg" xmlns:xlink="http://www.w3.org/1999/xlink">
<g id="graph0" class="graph" transform="scale(1 1) rotate(0) translate(4 280)">
<title>dependencies</title>
<polygon fill="#ffffff" stroke="transparent" points="-4,4 -4,-280 1397,-280 1397,4 -4,4"/>
<text text-anchor="start" x="675.5091" y="-42.4" font-family="sans-serif" font-weight="bold" font-size="14.00" fill="#000000">Legend</text>
<polygon fill="#ffffb3" stroke="transparent" points="462.5,-10 462.5,-30 482.5,-30 482.5,-10 462.5,-10"/>
<text text-anchor="start" x="486.129" y="-15.4" font-family="sans-serif" font-size="14.00" fill="#000000"> &#160;Declarations</text>
<polygon fill="#8dd3c7" stroke="transparent" points="575.5,-10 575.5,-30 595.5,-30 595.5,-10 575.5,-10"/>
<text text-anchor="start" x="599.2251" y="-15.4" font-family="sans-serif" font-size="14.00" fill="#000000"> &#160;Module</text>
<polygon fill="#80b1d3" stroke="transparent" points="661.5,-10 661.5,-30 681.5,-30 681.5,-10 661.5,-10"/>
<text text-anchor="start" x="685.2812" y="-15.4" font-family="sans-serif" font-size="14.00" fill="#000000"> &#160;Bootstrap</text>
<polygon fill="#fdb462" stroke="transparent" points="758.5,-10 758.5,-30 778.5,-30 778.5,-10 758.5,-10"/>
<text text-anchor="start" x="782.1732" y="-15.4" font-family="sans-serif" font-size="14.00" fill="#000000"> &#160;Providers</text>
<polygon fill="#fb8072" stroke="transparent" points="854.5,-10 854.5,-30 874.5,-30 874.5,-10 854.5,-10"/>
<text text-anchor="start" x="878.2258" y="-15.4" font-family="sans-serif" font-size="14.00" fill="#000000"> &#160;Exports</text>
<g id="clust1" class="cluster">
<title>cluster_AppModule</title>
<polygon fill="none" stroke="#000000" stroke-dasharray="1,5" points="8,-70 8,-268 1385,-268 1385,-70 8,-70"/>
</g>
<g id="clust2" class="cluster">
<title>cluster_AppModule_declarations</title>
<polygon fill="none" stroke="#000000" points="668,-78 668,-130 1377,-130 1377,-78 668,-78"/>
</g>
<g id="clust8" class="cluster">
<title>cluster_AppModule_imports</title>
<polygon fill="none" stroke="#000000" points="516,-78 516,-130 660,-130 660,-78 516,-78"/>
</g>
<g id="clust10" class="cluster">
<title>cluster_AppModule_bootstrap</title>
<polygon fill="none" stroke="#000000" points="691,-208 691,-260 815,-260 815,-208 691,-208"/>
</g>
<g id="clust11" class="cluster">
<title>cluster_AppModule_providers</title>
<polygon fill="none" stroke="#000000" points="16,-78 16,-130 508,-130 508,-78 16,-78"/>
</g>
<!-- AppComponent -->
<g id="node1" class="node">
<title>AppComponent</title>
<polygon fill="#ffffb3" stroke="#000000" points="1368.9399,-122 1263.0601,-122 1263.0601,-86 1368.9399,-86 1368.9399,-122"/>
<text text-anchor="middle" x="1316" y="-99.8" font-family="Times,serif" font-size="14.00" fill="#000000">AppComponent</text>
</g>
<!-- AppModule -->
<g id="node6" class="node">
<title>AppModule</title>
<polygon fill="#8dd3c7" stroke="#000000" points="794.6571,-187 791.6571,-191 770.6571,-191 767.6571,-187 711.3429,-187 711.3429,-151 794.6571,-151 794.6571,-187"/>
<text text-anchor="middle" x="753" y="-164.8" font-family="Times,serif" font-size="14.00" fill="#000000">AppModule</text>
</g>
<!-- AppComponent&#45;&gt;AppModule -->
<g id="edge1" class="edge">
<title>AppComponent&#45;&gt;AppModule</title>
<path fill="none" stroke="#000000" d="M1316,-122.0109C1316,-144.4852 1316,-180 1316,-180 1316,-180 804.8565,-180 804.8565,-180"/>
<polygon fill="#000000" stroke="#000000" points="804.8566,-176.5001 794.8565,-180 804.8565,-183.5001 804.8566,-176.5001"/>
</g>
<!-- LayoutComponent -->
<g id="node2" class="node">
<title>LayoutComponent</title>
<polygon fill="#ffffb3" stroke="#000000" points="1245.4902,-122 1124.5098,-122 1124.5098,-86 1245.4902,-86 1245.4902,-122"/>
<text text-anchor="middle" x="1185" y="-99.8" font-family="Times,serif" font-size="14.00" fill="#000000">LayoutComponent</text>
</g>
<!-- LayoutComponent&#45;&gt;AppModule -->
<g id="edge2" class="edge">
<title>LayoutComponent&#45;&gt;AppModule</title>
<path fill="none" stroke="#000000" d="M1185,-122.1289C1185,-142.5724 1185,-173 1185,-173 1185,-173 804.8145,-173 804.8145,-173"/>
<polygon fill="#000000" stroke="#000000" points="804.8145,-169.5001 794.8145,-173 804.8145,-176.5001 804.8145,-169.5001"/>
</g>
<!-- HeaderComponent -->
<g id="node3" class="node">
<title>HeaderComponent</title>
<polygon fill="#ffffb3" stroke="#000000" points="1106.7437,-122 985.2563,-122 985.2563,-86 1106.7437,-86 1106.7437,-122"/>
<text text-anchor="middle" x="1046" y="-99.8" font-family="Times,serif" font-size="14.00" fill="#000000">HeaderComponent</text>
</g>
<!-- HeaderComponent&#45;&gt;AppModule -->
<g id="edge3" class="edge">
<title>HeaderComponent&#45;&gt;AppModule</title>
<path fill="none" stroke="#000000" d="M1046,-122.2667C1046,-140.5552 1046,-166 1046,-166 1046,-166 804.6686,-166 804.6686,-166"/>
<polygon fill="#000000" stroke="#000000" points="804.6686,-162.5001 794.6686,-166 804.6686,-169.5001 804.6686,-162.5001"/>
</g>
<!-- CenterComponent -->
<g id="node4" class="node">
<title>CenterComponent</title>
<polygon fill="#ffffb3" stroke="#000000" points="967.1499,-122 848.8501,-122 848.8501,-86 967.1499,-86 967.1499,-122"/>
<text text-anchor="middle" x="908" y="-99.8" font-family="Times,serif" font-size="14.00" fill="#000000">CenterComponent</text>
</g>
<!-- CenterComponent&#45;&gt;AppModule -->
<g id="edge4" class="edge">
<title>CenterComponent&#45;&gt;AppModule</title>
<path fill="none" stroke="#000000" d="M908,-122.0091C908,-138.0494 908,-159 908,-159 908,-159 804.9452,-159 804.9452,-159"/>
<polygon fill="#000000" stroke="#000000" points="804.9453,-155.5001 794.9452,-159 804.9452,-162.5001 804.9453,-155.5001"/>
</g>
<!-- EmailValidatorDirective -->
<g id="node5" class="node">
<title>EmailValidatorDirective</title>
<polygon fill="#ffffb3" stroke="#000000" points="830.3905,-122 675.6095,-122 675.6095,-86 830.3905,-86 830.3905,-122"/>
<text text-anchor="middle" x="753" y="-99.8" font-family="Times,serif" font-size="14.00" fill="#000000">EmailValidatorDirective</text>
</g>
<!-- EmailValidatorDirective&#45;&gt;AppModule -->
<g id="edge5" class="edge">
<title>EmailValidatorDirective&#45;&gt;AppModule</title>
<path fill="none" stroke="#000000" d="M753,-122.1061C753,-122.1061 753,-140.991 753,-140.991"/>
<polygon fill="#000000" stroke="#000000" points="749.5001,-140.9909 753,-150.991 756.5001,-140.991 749.5001,-140.9909"/>
</g>
<!-- AppComponent  -->
<g id="node8" class="node">
<title>AppComponent </title>
<polygon fill="#80b1d3" stroke="#000000" points="807.439,-252 698.561,-252 698.561,-216 807.439,-216 807.439,-252"/>
<text text-anchor="middle" x="753" y="-229.8" font-family="Times,serif" font-size="14.00" fill="#000000">AppComponent </text>
</g>
<!-- AppModule&#45;&gt;AppComponent  -->
<g id="edge7" class="edge">
<title>AppModule&#45;&gt;AppComponent </title>
<path fill="none" stroke="#000000" stroke-dasharray="1,5" d="M753,-187.1061C753,-187.1061 753,-205.991 753,-205.991"/>
<polygon fill="#000000" stroke="#000000" points="749.5001,-205.9909 753,-215.991 756.5001,-205.991 749.5001,-205.9909"/>
</g>
<!-- AppRoutingModule -->
<g id="node7" class="node">
<title>AppRoutingModule</title>
<polygon fill="#8dd3c7" stroke="#000000" points="652.2744,-122 649.2744,-126 628.2744,-126 625.2744,-122 523.7256,-122 523.7256,-86 652.2744,-86 652.2744,-122"/>
<text text-anchor="middle" x="588" y="-99.8" font-family="Times,serif" font-size="14.00" fill="#000000">AppRoutingModule</text>
</g>
<!-- AppRoutingModule&#45;&gt;AppModule -->
<g id="edge6" class="edge">
<title>AppRoutingModule&#45;&gt;AppModule</title>
<path fill="none" stroke="#000000" d="M588,-122.0091C588,-138.0494 588,-159 588,-159 588,-159 700.9366,-159 700.9366,-159"/>
<polygon fill="#000000" stroke="#000000" points="700.9366,-162.5001 710.9366,-159 700.9366,-155.5001 700.9366,-162.5001"/>
</g>
<!-- AuthGuard -->
<g id="node9" class="node">
<title>AuthGuard</title>
<ellipse fill="#fdb462" stroke="#000000" cx="446" cy="-104" rx="54.4566" ry="18"/>
<text text-anchor="middle" x="446" y="-99.8" font-family="Times,serif" font-size="14.00" fill="#000000">AuthGuard</text>
</g>
<!-- AuthGuard&#45;&gt;AppModule -->
<g id="edge8" class="edge">
<title>AuthGuard&#45;&gt;AppModule</title>
<path fill="none" stroke="#000000" d="M446,-122.2667C446,-140.5552 446,-166 446,-166 446,-166 701.2771,-166 701.2771,-166"/>
<polygon fill="#000000" stroke="#000000" points="701.2771,-169.5001 711.2771,-166 701.2771,-162.5001 701.2771,-169.5001"/>
</g>
<!-- Authentication -->
<g id="node10" class="node">
<title>Authentication</title>
<ellipse fill="#fdb462" stroke="#000000" cx="305" cy="-104" rx="68.3575" ry="18"/>
<text text-anchor="middle" x="305" y="-99.8" font-family="Times,serif" font-size="14.00" fill="#000000">Authentication</text>
</g>
<!-- Authentication&#45;&gt;AppModule -->
<g id="edge9" class="edge">
<title>Authentication&#45;&gt;AppModule</title>
<path fill="none" stroke="#000000" d="M305,-122.1289C305,-142.5724 305,-173 305,-173 305,-173 701.2555,-173 701.2555,-173"/>
<polygon fill="#000000" stroke="#000000" points="701.2556,-176.5001 711.2555,-173 701.2555,-169.5001 701.2556,-176.5001"/>
</g>
<!-- AuthenticationService -->
<g id="node11" class="node">
<title>AuthenticationService</title>
<ellipse fill="#fdb462" stroke="#000000" cx="121" cy="-104" rx="97.2683" ry="18"/>
<text text-anchor="middle" x="121" y="-99.8" font-family="Times,serif" font-size="14.00" fill="#000000">AuthenticationService</text>
</g>
<!-- AuthenticationService&#45;&gt;AppModule -->
<g id="edge10" class="edge">
<title>AuthenticationService&#45;&gt;AppModule</title>
<path fill="none" stroke="#000000" d="M121,-122.0109C121,-144.4852 121,-180 121,-180 121,-180 701.0433,-180 701.0433,-180"/>
<polygon fill="#000000" stroke="#000000" points="701.0433,-183.5001 711.0433,-180 701.0432,-176.5001 701.0433,-183.5001"/>
</g>
</g>
</svg>
