<?xml version="1.0" encoding="UTF-8" standalone="no"?>
<!DOCTYPE svg PUBLIC "-//W3C//DTD SVG 1.1//EN"
 "http://www.w3.org/Graphics/SVG/1.1/DTD/svg11.dtd">
<!-- Generated by graphviz version 2.40.1 (20161225.0304)
 -->
<!-- Title: dependencies Pages: 1 -->
<svg width="568pt" height="276pt"
 viewBox="0.00 0.00 568.00 276.00" xmlns="http://www.w3.org/2000/svg" xmlns:xlink="http://www.w3.org/1999/xlink">
<g id="graph0" class="graph" transform="scale(1 1) rotate(0) translate(4 272)">
<title>dependencies</title>
<polygon fill="#ffffff" stroke="transparent" points="-4,4 -4,-272 564,-272 564,4 -4,4"/>
<text text-anchor="start" x="259.0091" y="-42.4" font-family="sans-serif" font-weight="bold" font-size="14.00" fill="#000000">Legend</text>
<polygon fill="#ffffb3" stroke="transparent" points="46,-10 46,-30 66,-30 66,-10 46,-10"/>
<text text-anchor="start" x="69.629" y="-15.4" font-family="sans-serif" font-size="14.00" fill="#000000"> &#160;Declarations</text>
<polygon fill="#8dd3c7" stroke="transparent" points="159,-10 159,-30 179,-30 179,-10 159,-10"/>
<text text-anchor="start" x="182.7251" y="-15.4" font-family="sans-serif" font-size="14.00" fill="#000000"> &#160;Module</text>
<polygon fill="#80b1d3" stroke="transparent" points="245,-10 245,-30 265,-30 265,-10 245,-10"/>
<text text-anchor="start" x="268.7812" y="-15.4" font-family="sans-serif" font-size="14.00" fill="#000000"> &#160;Bootstrap</text>
<polygon fill="#fdb462" stroke="transparent" points="342,-10 342,-30 362,-30 362,-10 342,-10"/>
<text text-anchor="start" x="365.6732" y="-15.4" font-family="sans-serif" font-size="14.00" fill="#000000"> &#160;Providers</text>
<polygon fill="#fb8072" stroke="transparent" points="438,-10 438,-30 458,-30 458,-10 438,-10"/>
<text text-anchor="start" x="461.7258" y="-15.4" font-family="sans-serif" font-size="14.00" fill="#000000"> &#160;Exports</text>
<g id="clust1" class="cluster">
<title>cluster_ReadBoardModule</title>
<polygon fill="none" stroke="#000000" stroke-dasharray="1,5" points="8,-70 8,-260 552,-260 552,-70 8,-70"/>
</g>
<g id="clust2" class="cluster">
<title>cluster_ReadBoardModule_declarations</title>
<polygon fill="none" stroke="#000000" points="208,-143 208,-195 532,-195 532,-143 208,-143"/>
</g>
<g id="clust3" class="cluster">
<title>cluster_ReadBoardModule_ReadBoardComponent_providers</title>
<polygon fill="none" stroke="#000000" points="361,-78 361,-130 543,-130 543,-78 361,-78"/>
</g>
<g id="clust5" class="cluster">
<title>cluster_ReadBoardModule_imports</title>
<polygon fill="none" stroke="#000000" points="16,-143 16,-195 200,-195 200,-143 16,-143"/>
</g>
<!-- ReadBoardComponent -->
<g id="node1" class="node">
<title>ReadBoardComponent</title>
<polygon fill="#ffffb3" stroke="#000000" points="524.3103,-187 379.6897,-187 379.6897,-151 524.3103,-151 524.3103,-187"/>
<text text-anchor="middle" x="452" y="-164.8" font-family="Times,serif" font-size="14.00" fill="#000000">ReadBoardComponent</text>
</g>
<!-- ReadBoardModule -->
<g id="node3" class="node">
<title>ReadBoardModule</title>
<polygon fill="#8dd3c7" stroke="#000000" points="431.0283,-252 428.0283,-256 407.0283,-256 404.0283,-252 308.9717,-252 308.9717,-216 431.0283,-216 431.0283,-252"/>
<text text-anchor="middle" x="370" y="-229.8" font-family="Times,serif" font-size="14.00" fill="#000000">ReadBoardModule</text>
</g>
<!-- ReadBoardComponent&#45;&gt;ReadBoardModule -->
<g id="edge1" class="edge">
<title>ReadBoardComponent&#45;&gt;ReadBoardModule</title>
<path fill="none" stroke="#000000" d="M405.5544,-187.1061C405.5544,-187.1061 405.5544,-205.991 405.5544,-205.991"/>
<polygon fill="#000000" stroke="#000000" points="402.0544,-205.9909 405.5544,-215.991 409.0544,-205.991 402.0544,-205.9909"/>
</g>
<!-- StoryBoardComponent -->
<g id="node2" class="node">
<title>StoryBoardComponent</title>
<polygon fill="#ffffb3" stroke="#000000" points="361.8781,-187 216.1219,-187 216.1219,-151 361.8781,-151 361.8781,-187"/>
<text text-anchor="middle" x="289" y="-164.8" font-family="Times,serif" font-size="14.00" fill="#000000">StoryBoardComponent</text>
</g>
<!-- StoryBoardComponent&#45;&gt;ReadBoardModule -->
<g id="edge3" class="edge">
<title>StoryBoardComponent&#45;&gt;ReadBoardModule</title>
<path fill="none" stroke="#000000" d="M335.3377,-187.1061C335.3377,-187.1061 335.3377,-205.991 335.3377,-205.991"/>
<polygon fill="#000000" stroke="#000000" points="331.8377,-205.9909 335.3377,-215.991 338.8377,-205.991 331.8377,-205.9909"/>
</g>
<!-- ReadBoardService -->
<g id="node4" class="node">
<title>ReadBoardService</title>
<ellipse fill="#fdb462" stroke="#000000" cx="452" cy="-104" rx="83.3654" ry="18"/>
<text text-anchor="middle" x="452" y="-99.8" font-family="Times,serif" font-size="14.00" fill="#000000">ReadBoardService</text>
</g>
<!-- ReadBoardService&#45;&gt;ReadBoardComponent -->
<g id="edge2" class="edge">
<title>ReadBoardService&#45;&gt;ReadBoardComponent</title>
<path fill="none" stroke="#000000" d="M452,-122.1061C452,-122.1061 452,-140.991 452,-140.991"/>
<polygon fill="#000000" stroke="#000000" points="448.5001,-140.9909 452,-150.991 455.5001,-140.991 448.5001,-140.9909"/>
</g>
<!-- ReadBoardService&#45;&gt;ReadBoardModule -->
<g id="edge5" class="edge">
<title>ReadBoardService&#45;&gt;ReadBoardModule</title>
<path fill="none" stroke="#000000" d="M374.2062,-110.6254C374.2062,-110.6254 374.2062,-205.6885 374.2062,-205.6885"/>
<polygon fill="#000000" stroke="#000000" points="370.7063,-205.6885 374.2062,-215.6885 377.7063,-205.6886 370.7063,-205.6885"/>
</g>
<!-- ReadBoardRoutingModule -->
<g id="node5" class="node">
<title>ReadBoardRoutingModule</title>
<polygon fill="#8dd3c7" stroke="#000000" points="191.6456,-187 188.6456,-191 167.6456,-191 164.6456,-187 24.3544,-187 24.3544,-151 191.6456,-151 191.6456,-187"/>
<text text-anchor="middle" x="108" y="-164.8" font-family="Times,serif" font-size="14.00" fill="#000000">ReadBoardRoutingModule</text>
</g>
<!-- ReadBoardRoutingModule&#45;&gt;ReadBoardModule -->
<g id="edge4" class="edge">
<title>ReadBoardRoutingModule&#45;&gt;ReadBoardModule</title>
<path fill="none" stroke="#000000" d="M108,-187.1061C108,-206.3391 108,-234 108,-234 108,-234 298.9033,-234 298.9033,-234"/>
<polygon fill="#000000" stroke="#000000" points="298.9033,-237.5001 308.9033,-234 298.9033,-230.5001 298.9033,-237.5001"/>
</g>
</g>
</svg>
