<?xml version="1.0" encoding="UTF-8" standalone="no"?>
<!DOCTYPE svg PUBLIC "-//W3C//DTD SVG 1.1//EN"
 "http://www.w3.org/Graphics/SVG/1.1/DTD/svg11.dtd">
<!-- Generated by graphviz version 2.40.1 (20161225.0304)
 -->
<!-- Title: dependencies Pages: 1 -->
<svg width="2475pt" height="284pt"
 viewBox="0.00 0.00 2475.00 284.00" xmlns="http://www.w3.org/2000/svg" xmlns:xlink="http://www.w3.org/1999/xlink">
<g id="graph0" class="graph" transform="scale(1 1) rotate(0) translate(4 280)">
<title>dependencies</title>
<polygon fill="#ffffff" stroke="transparent" points="-4,4 -4,-280 2471,-280 2471,4 -4,4"/>
<text text-anchor="start" x="1212.5091" y="-42.4" font-family="sans-serif" font-weight="bold" font-size="14.00" fill="#000000">Legend</text>
<polygon fill="#ffffb3" stroke="transparent" points="999.5,-10 999.5,-30 1019.5,-30 1019.5,-10 999.5,-10"/>
<text text-anchor="start" x="1023.129" y="-15.4" font-family="sans-serif" font-size="14.00" fill="#000000"> &#160;Declarations</text>
<polygon fill="#8dd3c7" stroke="transparent" points="1112.5,-10 1112.5,-30 1132.5,-30 1132.5,-10 1112.5,-10"/>
<text text-anchor="start" x="1136.2251" y="-15.4" font-family="sans-serif" font-size="14.00" fill="#000000"> &#160;Module</text>
<polygon fill="#80b1d3" stroke="transparent" points="1198.5,-10 1198.5,-30 1218.5,-30 1218.5,-10 1198.5,-10"/>
<text text-anchor="start" x="1222.2812" y="-15.4" font-family="sans-serif" font-size="14.00" fill="#000000"> &#160;Bootstrap</text>
<polygon fill="#fdb462" stroke="transparent" points="1295.5,-10 1295.5,-30 1315.5,-30 1315.5,-10 1295.5,-10"/>
<text text-anchor="start" x="1319.1732" y="-15.4" font-family="sans-serif" font-size="14.00" fill="#000000"> &#160;Providers</text>
<polygon fill="#fb8072" stroke="transparent" points="1391.5,-10 1391.5,-30 1411.5,-30 1411.5,-10 1391.5,-10"/>
<text text-anchor="start" x="1415.2258" y="-15.4" font-family="sans-serif" font-size="14.00" fill="#000000"> &#160;Exports</text>
<g id="clust1" class="cluster">
<title>cluster_AppModule</title>
<polygon fill="none" stroke="#000000" stroke-dasharray="1,5" points="8,-70 8,-268 1109,-268 1109,-70 8,-70"/>
</g>
<g id="clust2" class="cluster">
<title>cluster_AppModule_declarations</title>
<polygon fill="none" stroke="#000000" points="668,-78 668,-130 1101,-130 1101,-78 668,-78"/>
</g>
<g id="clust6" class="cluster">
<title>cluster_AppModule_imports</title>
<polygon fill="none" stroke="#000000" points="516,-78 516,-130 660,-130 660,-78 516,-78"/>
</g>
<g id="clust8" class="cluster">
<title>cluster_AppModule_bootstrap</title>
<polygon fill="none" stroke="#000000" points="526,-208 526,-260 650,-260 650,-208 526,-208"/>
</g>
<g id="clust9" class="cluster">
<title>cluster_AppModule_providers</title>
<polygon fill="none" stroke="#000000" points="16,-78 16,-130 508,-130 508,-78 16,-78"/>
</g>
<g id="clust16" class="cluster">
<title>cluster_AuthenticationModule</title>
<polygon fill="none" stroke="#000000" stroke-dasharray="1,5" points="1117,-70 1117,-195 1525,-195 1525,-70 1117,-70"/>
</g>
<g id="clust17" class="cluster">
<title>cluster_AuthenticationModule_declarations</title>
<polygon fill="none" stroke="#000000" points="1337,-78 1337,-130 1517,-130 1517,-78 1337,-78"/>
</g>
<g id="clust19" class="cluster">
<title>cluster_AuthenticationModule_imports</title>
<polygon fill="none" stroke="#000000" points="1125,-78 1125,-130 1329,-130 1329,-78 1125,-78"/>
</g>
<g id="clust29" class="cluster">
<title>cluster_ReadBoardModule</title>
<polygon fill="none" stroke="#000000" stroke-dasharray="1,5" points="1533,-70 1533,-260 2077,-260 2077,-70 1533,-70"/>
</g>
<g id="clust30" class="cluster">
<title>cluster_ReadBoardModule_declarations</title>
<polygon fill="none" stroke="#000000" points="1733,-143 1733,-195 2057,-195 2057,-143 1733,-143"/>
</g>
<g id="clust31" class="cluster">
<title>cluster_ReadBoardModule_ReadBoardComponent_providers</title>
<polygon fill="none" stroke="#000000" points="1886,-78 1886,-130 2068,-130 2068,-78 1886,-78"/>
</g>
<g id="clust33" class="cluster">
<title>cluster_ReadBoardModule_imports</title>
<polygon fill="none" stroke="#000000" points="1541,-143 1541,-195 1725,-195 1725,-143 1541,-143"/>
</g>
<g id="clust43" class="cluster">
<title>cluster_WriteBoardModule</title>
<polygon fill="none" stroke="#000000" stroke-dasharray="1,5" points="2085,-70 2085,-195 2459,-195 2459,-70 2085,-70"/>
</g>
<g id="clust44" class="cluster">
<title>cluster_WriteBoardModule_declarations</title>
<polygon fill="none" stroke="#000000" points="2287,-78 2287,-130 2451,-130 2451,-78 2287,-78"/>
</g>
<g id="clust46" class="cluster">
<title>cluster_WriteBoardModule_imports</title>
<polygon fill="none" stroke="#000000" points="2093,-78 2093,-130 2279,-130 2279,-78 2093,-78"/>
</g>
<!-- AppComponent -->
<g id="node1" class="node">
<title>AppComponent</title>
<polygon fill="#ffffb3" stroke="#000000" points="1092.9399,-122 987.0601,-122 987.0601,-86 1092.9399,-86 1092.9399,-122"/>
<text text-anchor="middle" x="1040" y="-99.8" font-family="Times,serif" font-size="14.00" fill="#000000">AppComponent</text>
</g>
<!-- AppModule -->
<g id="node4" class="node">
<title>AppModule</title>
<polygon fill="#8dd3c7" stroke="#000000" points="629.6571,-187 626.6571,-191 605.6571,-191 602.6571,-187 546.3429,-187 546.3429,-151 629.6571,-151 629.6571,-187"/>
<text text-anchor="middle" x="588" y="-164.8" font-family="Times,serif" font-size="14.00" fill="#000000">AppModule</text>
</g>
<!-- AppComponent&#45;&gt;AppModule -->
<g id="edge1" class="edge">
<title>AppComponent&#45;&gt;AppModule</title>
<path fill="none" stroke="#000000" d="M1040,-122.2921C1040,-144.2057 1040,-178 1040,-178 1040,-178 639.7129,-178 639.7129,-178"/>
<polygon fill="#000000" stroke="#000000" points="639.7129,-174.5001 629.7129,-178 639.7129,-181.5001 639.7129,-174.5001"/>
</g>
<!-- EmailValidatorDirective -->
<g id="node2" class="node">
<title>EmailValidatorDirective</title>
<polygon fill="#ffffb3" stroke="#000000" points="969.3905,-122 814.6095,-122 814.6095,-86 969.3905,-86 969.3905,-122"/>
<text text-anchor="middle" x="892" y="-99.8" font-family="Times,serif" font-size="14.00" fill="#000000">EmailValidatorDirective</text>
</g>
<!-- EmailValidatorDirective&#45;&gt;AppModule -->
<g id="edge2" class="edge">
<title>EmailValidatorDirective&#45;&gt;AppModule</title>
<path fill="none" stroke="#000000" d="M892,-122.1061C892,-141.3391 892,-169 892,-169 892,-169 639.9507,-169 639.9507,-169"/>
<polygon fill="#000000" stroke="#000000" points="639.9508,-165.5001 629.9507,-169 639.9507,-172.5001 639.9508,-165.5001"/>
</g>
<!-- LayoutComponent -->
<g id="node3" class="node">
<title>LayoutComponent</title>
<polygon fill="#ffffb3" stroke="#000000" points="796.4902,-122 675.5098,-122 675.5098,-86 796.4902,-86 796.4902,-122"/>
<text text-anchor="middle" x="736" y="-99.8" font-family="Times,serif" font-size="14.00" fill="#000000">LayoutComponent</text>
</g>
<!-- LayoutComponent&#45;&gt;AppModule -->
<g id="edge3" class="edge">
<title>LayoutComponent&#45;&gt;AppModule</title>
<path fill="none" stroke="#000000" d="M736,-122.027C736,-138.3976 736,-160 736,-160 736,-160 640.015,-160 640.015,-160"/>
<polygon fill="#000000" stroke="#000000" points="640.015,-156.5001 630.015,-160 640.0149,-163.5001 640.015,-156.5001"/>
</g>
<!-- AppComponent  -->
<g id="node6" class="node">
<title>AppComponent </title>
<polygon fill="#80b1d3" stroke="#000000" points="642.439,-252 533.561,-252 533.561,-216 642.439,-216 642.439,-252"/>
<text text-anchor="middle" x="588" y="-229.8" font-family="Times,serif" font-size="14.00" fill="#000000">AppComponent </text>
</g>
<!-- AppModule&#45;&gt;AppComponent  -->
<g id="edge5" class="edge">
<title>AppModule&#45;&gt;AppComponent </title>
<path fill="none" stroke="#000000" stroke-dasharray="1,5" d="M588,-187.1061C588,-187.1061 588,-205.991 588,-205.991"/>
<polygon fill="#000000" stroke="#000000" points="584.5001,-205.9909 588,-215.991 591.5001,-205.991 584.5001,-205.9909"/>
</g>
<!-- AppRoutingModule -->
<g id="node5" class="node">
<title>AppRoutingModule</title>
<polygon fill="#8dd3c7" stroke="#000000" points="652.2744,-122 649.2744,-126 628.2744,-126 625.2744,-122 523.7256,-122 523.7256,-86 652.2744,-86 652.2744,-122"/>
<text text-anchor="middle" x="588" y="-99.8" font-family="Times,serif" font-size="14.00" fill="#000000">AppRoutingModule</text>
</g>
<!-- AppRoutingModule&#45;&gt;AppModule -->
<g id="edge4" class="edge">
<title>AppRoutingModule&#45;&gt;AppModule</title>
<path fill="none" stroke="#000000" d="M588,-122.1061C588,-122.1061 588,-140.991 588,-140.991"/>
<polygon fill="#000000" stroke="#000000" points="584.5001,-140.9909 588,-150.991 591.5001,-140.991 584.5001,-140.9909"/>
</g>
<!-- AuthGuard -->
<g id="node7" class="node">
<title>AuthGuard</title>
<ellipse fill="#fdb462" stroke="#000000" cx="446" cy="-104" rx="54.4566" ry="18"/>
<text text-anchor="middle" x="446" y="-99.8" font-family="Times,serif" font-size="14.00" fill="#000000">AuthGuard</text>
</g>
<!-- AuthGuard&#45;&gt;AppModule -->
<g id="edge6" class="edge">
<title>AuthGuard&#45;&gt;AppModule</title>
<path fill="none" stroke="#000000" d="M446,-122.027C446,-138.3976 446,-160 446,-160 446,-160 536.1633,-160 536.1633,-160"/>
<polygon fill="#000000" stroke="#000000" points="536.1634,-163.5001 546.1633,-160 536.1633,-156.5001 536.1634,-163.5001"/>
</g>
<!-- Authentication -->
<g id="node8" class="node">
<title>Authentication</title>
<ellipse fill="#fdb462" stroke="#000000" cx="305" cy="-104" rx="68.3575" ry="18"/>
<text text-anchor="middle" x="305" y="-99.8" font-family="Times,serif" font-size="14.00" fill="#000000">Authentication</text>
</g>
<!-- Authentication&#45;&gt;AppModule -->
<g id="edge7" class="edge">
<title>Authentication&#45;&gt;AppModule</title>
<path fill="none" stroke="#000000" d="M305,-122.1061C305,-141.3391 305,-169 305,-169 305,-169 536.2424,-169 536.2424,-169"/>
<polygon fill="#000000" stroke="#000000" points="536.2424,-172.5001 546.2424,-169 536.2423,-165.5001 536.2424,-172.5001"/>
</g>
<!-- AuthenticationService -->
<g id="node9" class="node">
<title>AuthenticationService</title>
<ellipse fill="#fdb462" stroke="#000000" cx="121" cy="-104" rx="97.2683" ry="18"/>
<text text-anchor="middle" x="121" y="-99.8" font-family="Times,serif" font-size="14.00" fill="#000000">AuthenticationService</text>
</g>
<!-- AuthenticationService&#45;&gt;AppModule -->
<g id="edge8" class="edge">
<title>AuthenticationService&#45;&gt;AppModule</title>
<path fill="none" stroke="#000000" d="M121,-122.2921C121,-144.2057 121,-178 121,-178 121,-178 536.1459,-178 536.1459,-178"/>
<polygon fill="#000000" stroke="#000000" points="536.1459,-181.5001 546.1459,-178 536.1458,-174.5001 536.1459,-181.5001"/>
</g>
<!-- AuthenticationComponent -->
<g id="node10" class="node">
<title>AuthenticationComponent</title>
<polygon fill="#ffffb3" stroke="#000000" points="1509.0365,-122 1344.9635,-122 1344.9635,-86 1509.0365,-86 1509.0365,-122"/>
<text text-anchor="middle" x="1427" y="-99.8" font-family="Times,serif" font-size="14.00" fill="#000000">AuthenticationComponent</text>
</g>
<!-- AuthenticationModule -->
<g id="node11" class="node">
<title>AuthenticationModule</title>
<polygon fill="#8dd3c7" stroke="#000000" points="1398.2534,-187 1395.2534,-191 1374.2534,-191 1371.2534,-187 1255.7466,-187 1255.7466,-151 1398.2534,-151 1398.2534,-187"/>
<text text-anchor="middle" x="1327" y="-164.8" font-family="Times,serif" font-size="14.00" fill="#000000">AuthenticationModule</text>
</g>
<!-- AuthenticationComponent&#45;&gt;AuthenticationModule -->
<g id="edge9" class="edge">
<title>AuthenticationComponent&#45;&gt;AuthenticationModule</title>
<path fill="none" stroke="#000000" d="M1371.5543,-122.1061C1371.5543,-122.1061 1371.5543,-140.991 1371.5543,-140.991"/>
<polygon fill="#000000" stroke="#000000" points="1368.0544,-140.9909 1371.5543,-150.991 1375.0544,-140.991 1368.0544,-140.9909"/>
</g>
<!-- AuthenticationRoutingModule -->
<g id="node12" class="node">
<title>AuthenticationRoutingModule</title>
<polygon fill="#8dd3c7" stroke="#000000" points="1320.871,-122 1317.871,-126 1296.871,-126 1293.871,-122 1133.129,-122 1133.129,-86 1320.871,-86 1320.871,-122"/>
<text text-anchor="middle" x="1227" y="-99.8" font-family="Times,serif" font-size="14.00" fill="#000000">AuthenticationRoutingModule</text>
</g>
<!-- AuthenticationRoutingModule&#45;&gt;AuthenticationModule -->
<g id="edge10" class="edge">
<title>AuthenticationRoutingModule&#45;&gt;AuthenticationModule</title>
<path fill="none" stroke="#000000" d="M1288.2795,-122.1061C1288.2795,-122.1061 1288.2795,-140.991 1288.2795,-140.991"/>
<polygon fill="#000000" stroke="#000000" points="1284.7795,-140.9909 1288.2795,-150.991 1291.7795,-140.991 1284.7795,-140.9909"/>
</g>
<!-- ReadBoardComponent -->
<g id="node13" class="node">
<title>ReadBoardComponent</title>
<polygon fill="#ffffb3" stroke="#000000" points="2049.3103,-187 1904.6897,-187 1904.6897,-151 2049.3103,-151 2049.3103,-187"/>
<text text-anchor="middle" x="1977" y="-164.8" font-family="Times,serif" font-size="14.00" fill="#000000">ReadBoardComponent</text>
</g>
<!-- ReadBoardModule -->
<g id="node15" class="node">
<title>ReadBoardModule</title>
<polygon fill="#8dd3c7" stroke="#000000" points="1956.0283,-252 1953.0283,-256 1932.0283,-256 1929.0283,-252 1833.9717,-252 1833.9717,-216 1956.0283,-216 1956.0283,-252"/>
<text text-anchor="middle" x="1895" y="-229.8" font-family="Times,serif" font-size="14.00" fill="#000000">ReadBoardModule</text>
</g>
<!-- ReadBoardComponent&#45;&gt;ReadBoardModule -->
<g id="edge11" class="edge">
<title>ReadBoardComponent&#45;&gt;ReadBoardModule</title>
<path fill="none" stroke="#000000" d="M1930.5544,-187.1061C1930.5544,-187.1061 1930.5544,-205.991 1930.5544,-205.991"/>
<polygon fill="#000000" stroke="#000000" points="1927.0544,-205.9909 1930.5544,-215.991 1934.0544,-205.991 1927.0544,-205.9909"/>
</g>
<!-- StoryBoardComponent -->
<g id="node14" class="node">
<title>StoryBoardComponent</title>
<polygon fill="#ffffb3" stroke="#000000" points="1886.8781,-187 1741.1219,-187 1741.1219,-151 1886.8781,-151 1886.8781,-187"/>
<text text-anchor="middle" x="1814" y="-164.8" font-family="Times,serif" font-size="14.00" fill="#000000">StoryBoardComponent</text>
</g>
<!-- StoryBoardComponent&#45;&gt;ReadBoardModule -->
<g id="edge13" class="edge">
<title>StoryBoardComponent&#45;&gt;ReadBoardModule</title>
<path fill="none" stroke="#000000" d="M1860.3377,-187.1061C1860.3377,-187.1061 1860.3377,-205.991 1860.3377,-205.991"/>
<polygon fill="#000000" stroke="#000000" points="1856.8377,-205.9909 1860.3377,-215.991 1863.8377,-205.991 1856.8377,-205.9909"/>
</g>
<!-- ReadBoardService -->
<g id="node16" class="node">
<title>ReadBoardService</title>
<ellipse fill="#fdb462" stroke="#000000" cx="1977" cy="-104" rx="83.3654" ry="18"/>
<text text-anchor="middle" x="1977" y="-99.8" font-family="Times,serif" font-size="14.00" fill="#000000">ReadBoardService</text>
</g>
<!-- ReadBoardService&#45;&gt;ReadBoardComponent -->
<g id="edge12" class="edge">
<title>ReadBoardService&#45;&gt;ReadBoardComponent</title>
<path fill="none" stroke="#000000" d="M1977,-122.1061C1977,-122.1061 1977,-140.991 1977,-140.991"/>
<polygon fill="#000000" stroke="#000000" points="1973.5001,-140.9909 1977,-150.991 1980.5001,-140.991 1973.5001,-140.9909"/>
</g>
<!-- ReadBoardService&#45;&gt;ReadBoardModule -->
<g id="edge15" class="edge">
<title>ReadBoardService&#45;&gt;ReadBoardModule</title>
<path fill="none" stroke="#000000" d="M1899.2062,-110.6254C1899.2062,-110.6254 1899.2062,-205.6885 1899.2062,-205.6885"/>
<polygon fill="#000000" stroke="#000000" points="1895.7063,-205.6885 1899.2062,-215.6885 1902.7063,-205.6886 1895.7063,-205.6885"/>
</g>
<!-- ReadBoardRoutingModule -->
<g id="node17" class="node">
<title>ReadBoardRoutingModule</title>
<polygon fill="#8dd3c7" stroke="#000000" points="1716.6456,-187 1713.6456,-191 1692.6456,-191 1689.6456,-187 1549.3544,-187 1549.3544,-151 1716.6456,-151 1716.6456,-187"/>
<text text-anchor="middle" x="1633" y="-164.8" font-family="Times,serif" font-size="14.00" fill="#000000">ReadBoardRoutingModule</text>
</g>
<!-- ReadBoardRoutingModule&#45;&gt;ReadBoardModule -->
<g id="edge14" class="edge">
<title>ReadBoardRoutingModule&#45;&gt;ReadBoardModule</title>
<path fill="none" stroke="#000000" d="M1633,-187.1061C1633,-206.3391 1633,-234 1633,-234 1633,-234 1823.9033,-234 1823.9033,-234"/>
<polygon fill="#000000" stroke="#000000" points="1823.9033,-237.5001 1833.9033,-234 1823.9033,-230.5001 1823.9033,-237.5001"/>
</g>
<!-- WriteBoardComponent -->
<g id="node18" class="node">
<title>WriteBoardComponent</title>
<polygon fill="#ffffb3" stroke="#000000" points="2442.9158,-122 2295.0842,-122 2295.0842,-86 2442.9158,-86 2442.9158,-122"/>
<text text-anchor="middle" x="2369" y="-99.8" font-family="Times,serif" font-size="14.00" fill="#000000">WriteBoardComponent</text>
</g>
<!-- WriteBoardModule -->
<g id="node19" class="node">
<title>WriteBoardModule</title>
<polygon fill="#8dd3c7" stroke="#000000" points="2339.6331,-187 2336.6331,-191 2315.6331,-191 2312.6331,-187 2214.3669,-187 2214.3669,-151 2339.6331,-151 2339.6331,-187"/>
<text text-anchor="middle" x="2277" y="-164.8" font-family="Times,serif" font-size="14.00" fill="#000000">WriteBoardModule</text>
</g>
<!-- WriteBoardComponent&#45;&gt;WriteBoardModule -->
<g id="edge16" class="edge">
<title>WriteBoardComponent&#45;&gt;WriteBoardModule</title>
<path fill="none" stroke="#000000" d="M2317.5544,-122.1061C2317.5544,-122.1061 2317.5544,-140.991 2317.5544,-140.991"/>
<polygon fill="#000000" stroke="#000000" points="2314.0544,-140.9909 2317.5544,-150.991 2321.0544,-140.991 2314.0544,-140.9909"/>
</g>
<!-- WriteBoardRoutingModule -->
<g id="node20" class="node">
<title>WriteBoardRoutingModule</title>
<polygon fill="#8dd3c7" stroke="#000000" points="2271.2506,-122 2268.2506,-126 2247.2506,-126 2244.2506,-122 2100.7494,-122 2100.7494,-86 2271.2506,-86 2271.2506,-122"/>
<text text-anchor="middle" x="2186" y="-99.8" font-family="Times,serif" font-size="14.00" fill="#000000">WriteBoardRoutingModule</text>
</g>
<!-- WriteBoardRoutingModule&#45;&gt;WriteBoardModule -->
<g id="edge17" class="edge">
<title>WriteBoardRoutingModule&#45;&gt;WriteBoardModule</title>
<path fill="none" stroke="#000000" d="M2242.7795,-122.1061C2242.7795,-122.1061 2242.7795,-140.991 2242.7795,-140.991"/>
<polygon fill="#000000" stroke="#000000" points="2239.2795,-140.9909 2242.7795,-150.991 2246.2795,-140.991 2239.2795,-140.9909"/>
</g>
</g>
</svg>
