<?xml version="1.0" encoding="UTF-8" standalone="no"?>
<!DOCTYPE svg PUBLIC "-//W3C//DTD SVG 1.1//EN"
 "http://www.w3.org/Graphics/SVG/1.1/DTD/svg11.dtd">
<!-- Generated by graphviz version 2.40.1 (20161225.0304)
 -->
<!-- Title: dependencies Pages: 1 -->
<svg width="2751pt" height="284pt"
 viewBox="0.00 0.00 2751.00 284.00" xmlns="http://www.w3.org/2000/svg" xmlns:xlink="http://www.w3.org/1999/xlink">
<g id="graph0" class="graph" transform="scale(1 1) rotate(0) translate(4 280)">
<title>dependencies</title>
<polygon fill="#ffffff" stroke="transparent" points="-4,4 -4,-280 2747,-280 2747,4 -4,4"/>
<text text-anchor="start" x="1350.5091" y="-42.4" font-family="sans-serif" font-weight="bold" font-size="14.00" fill="#000000">Legend</text>
<polygon fill="#ffffb3" stroke="transparent" points="1137.5,-10 1137.5,-30 1157.5,-30 1157.5,-10 1137.5,-10"/>
<text text-anchor="start" x="1161.129" y="-15.4" font-family="sans-serif" font-size="14.00" fill="#000000"> &#160;Declarations</text>
<polygon fill="#8dd3c7" stroke="transparent" points="1250.5,-10 1250.5,-30 1270.5,-30 1270.5,-10 1250.5,-10"/>
<text text-anchor="start" x="1274.2251" y="-15.4" font-family="sans-serif" font-size="14.00" fill="#000000"> &#160;Module</text>
<polygon fill="#80b1d3" stroke="transparent" points="1336.5,-10 1336.5,-30 1356.5,-30 1356.5,-10 1336.5,-10"/>
<text text-anchor="start" x="1360.2812" y="-15.4" font-family="sans-serif" font-size="14.00" fill="#000000"> &#160;Bootstrap</text>
<polygon fill="#fdb462" stroke="transparent" points="1433.5,-10 1433.5,-30 1453.5,-30 1453.5,-10 1433.5,-10"/>
<text text-anchor="start" x="1457.1732" y="-15.4" font-family="sans-serif" font-size="14.00" fill="#000000"> &#160;Providers</text>
<polygon fill="#fb8072" stroke="transparent" points="1529.5,-10 1529.5,-30 1549.5,-30 1549.5,-10 1529.5,-10"/>
<text text-anchor="start" x="1553.2258" y="-15.4" font-family="sans-serif" font-size="14.00" fill="#000000"> &#160;Exports</text>
<g id="clust1" class="cluster">
<title>cluster_AppModule</title>
<polygon fill="none" stroke="#000000" stroke-dasharray="1,5" points="8,-70 8,-268 1385,-268 1385,-70 8,-70"/>
</g>
<g id="clust2" class="cluster">
<title>cluster_AppModule_declarations</title>
<polygon fill="none" stroke="#000000" points="668,-78 668,-130 1377,-130 1377,-78 668,-78"/>
</g>
<g id="clust8" class="cluster">
<title>cluster_AppModule_imports</title>
<polygon fill="none" stroke="#000000" points="516,-78 516,-130 660,-130 660,-78 516,-78"/>
</g>
<g id="clust10" class="cluster">
<title>cluster_AppModule_bootstrap</title>
<polygon fill="none" stroke="#000000" points="691,-208 691,-260 815,-260 815,-208 691,-208"/>
</g>
<g id="clust11" class="cluster">
<title>cluster_AppModule_providers</title>
<polygon fill="none" stroke="#000000" points="16,-78 16,-130 508,-130 508,-78 16,-78"/>
</g>
<g id="clust18" class="cluster">
<title>cluster_AuthenticationModule</title>
<polygon fill="none" stroke="#000000" stroke-dasharray="1,5" points="1393,-70 1393,-195 1801,-195 1801,-70 1393,-70"/>
</g>
<g id="clust19" class="cluster">
<title>cluster_AuthenticationModule_declarations</title>
<polygon fill="none" stroke="#000000" points="1613,-78 1613,-130 1793,-130 1793,-78 1613,-78"/>
</g>
<g id="clust21" class="cluster">
<title>cluster_AuthenticationModule_imports</title>
<polygon fill="none" stroke="#000000" points="1401,-78 1401,-130 1605,-130 1605,-78 1401,-78"/>
</g>
<g id="clust31" class="cluster">
<title>cluster_ReadBoardModule</title>
<polygon fill="none" stroke="#000000" stroke-dasharray="1,5" points="1809,-70 1809,-260 2353,-260 2353,-70 1809,-70"/>
</g>
<g id="clust32" class="cluster">
<title>cluster_ReadBoardModule_declarations</title>
<polygon fill="none" stroke="#000000" points="2009,-143 2009,-195 2333,-195 2333,-143 2009,-143"/>
</g>
<g id="clust33" class="cluster">
<title>cluster_ReadBoardModule_ReadBoardComponent_providers</title>
<polygon fill="none" stroke="#000000" points="2162,-78 2162,-130 2344,-130 2344,-78 2162,-78"/>
</g>
<g id="clust35" class="cluster">
<title>cluster_ReadBoardModule_imports</title>
<polygon fill="none" stroke="#000000" points="1817,-143 1817,-195 2001,-195 2001,-143 1817,-143"/>
</g>
<g id="clust45" class="cluster">
<title>cluster_WriteBoardModule</title>
<polygon fill="none" stroke="#000000" stroke-dasharray="1,5" points="2361,-70 2361,-195 2735,-195 2735,-70 2361,-70"/>
</g>
<g id="clust46" class="cluster">
<title>cluster_WriteBoardModule_declarations</title>
<polygon fill="none" stroke="#000000" points="2563,-78 2563,-130 2727,-130 2727,-78 2563,-78"/>
</g>
<g id="clust48" class="cluster">
<title>cluster_WriteBoardModule_imports</title>
<polygon fill="none" stroke="#000000" points="2369,-78 2369,-130 2555,-130 2555,-78 2369,-78"/>
</g>
<!-- AppComponent -->
<g id="node1" class="node">
<title>AppComponent</title>
<polygon fill="#ffffb3" stroke="#000000" points="1368.9399,-122 1263.0601,-122 1263.0601,-86 1368.9399,-86 1368.9399,-122"/>
<text text-anchor="middle" x="1316" y="-99.8" font-family="Times,serif" font-size="14.00" fill="#000000">AppComponent</text>
</g>
<!-- AppModule -->
<g id="node6" class="node">
<title>AppModule</title>
<polygon fill="#8dd3c7" stroke="#000000" points="794.6571,-187 791.6571,-191 770.6571,-191 767.6571,-187 711.3429,-187 711.3429,-151 794.6571,-151 794.6571,-187"/>
<text text-anchor="middle" x="753" y="-164.8" font-family="Times,serif" font-size="14.00" fill="#000000">AppModule</text>
</g>
<!-- AppComponent&#45;&gt;AppModule -->
<g id="edge1" class="edge">
<title>AppComponent&#45;&gt;AppModule</title>
<path fill="none" stroke="#000000" d="M1316,-122.0109C1316,-144.4852 1316,-180 1316,-180 1316,-180 804.8565,-180 804.8565,-180"/>
<polygon fill="#000000" stroke="#000000" points="804.8566,-176.5001 794.8565,-180 804.8565,-183.5001 804.8566,-176.5001"/>
</g>
<!-- LayoutComponent -->
<g id="node2" class="node">
<title>LayoutComponent</title>
<polygon fill="#ffffb3" stroke="#000000" points="1245.4902,-122 1124.5098,-122 1124.5098,-86 1245.4902,-86 1245.4902,-122"/>
<text text-anchor="middle" x="1185" y="-99.8" font-family="Times,serif" font-size="14.00" fill="#000000">LayoutComponent</text>
</g>
<!-- LayoutComponent&#45;&gt;AppModule -->
<g id="edge2" class="edge">
<title>LayoutComponent&#45;&gt;AppModule</title>
<path fill="none" stroke="#000000" d="M1185,-122.1289C1185,-142.5724 1185,-173 1185,-173 1185,-173 804.8145,-173 804.8145,-173"/>
<polygon fill="#000000" stroke="#000000" points="804.8145,-169.5001 794.8145,-173 804.8145,-176.5001 804.8145,-169.5001"/>
</g>
<!-- HeaderComponent -->
<g id="node3" class="node">
<title>HeaderComponent</title>
<polygon fill="#ffffb3" stroke="#000000" points="1106.7437,-122 985.2563,-122 985.2563,-86 1106.7437,-86 1106.7437,-122"/>
<text text-anchor="middle" x="1046" y="-99.8" font-family="Times,serif" font-size="14.00" fill="#000000">HeaderComponent</text>
</g>
<!-- HeaderComponent&#45;&gt;AppModule -->
<g id="edge3" class="edge">
<title>HeaderComponent&#45;&gt;AppModule</title>
<path fill="none" stroke="#000000" d="M1046,-122.2667C1046,-140.5552 1046,-166 1046,-166 1046,-166 804.6686,-166 804.6686,-166"/>
<polygon fill="#000000" stroke="#000000" points="804.6686,-162.5001 794.6686,-166 804.6686,-169.5001 804.6686,-162.5001"/>
</g>
<!-- CenterComponent -->
<g id="node4" class="node">
<title>CenterComponent</title>
<polygon fill="#ffffb3" stroke="#000000" points="967.1499,-122 848.8501,-122 848.8501,-86 967.1499,-86 967.1499,-122"/>
<text text-anchor="middle" x="908" y="-99.8" font-family="Times,serif" font-size="14.00" fill="#000000">CenterComponent</text>
</g>
<!-- CenterComponent&#45;&gt;AppModule -->
<g id="edge4" class="edge">
<title>CenterComponent&#45;&gt;AppModule</title>
<path fill="none" stroke="#000000" d="M908,-122.0091C908,-138.0494 908,-159 908,-159 908,-159 804.9452,-159 804.9452,-159"/>
<polygon fill="#000000" stroke="#000000" points="804.9453,-155.5001 794.9452,-159 804.9452,-162.5001 804.9453,-155.5001"/>
</g>
<!-- EmailValidatorDirective -->
<g id="node5" class="node">
<title>EmailValidatorDirective</title>
<polygon fill="#ffffb3" stroke="#000000" points="830.3905,-122 675.6095,-122 675.6095,-86 830.3905,-86 830.3905,-122"/>
<text text-anchor="middle" x="753" y="-99.8" font-family="Times,serif" font-size="14.00" fill="#000000">EmailValidatorDirective</text>
</g>
<!-- EmailValidatorDirective&#45;&gt;AppModule -->
<g id="edge5" class="edge">
<title>EmailValidatorDirective&#45;&gt;AppModule</title>
<path fill="none" stroke="#000000" d="M753,-122.1061C753,-122.1061 753,-140.991 753,-140.991"/>
<polygon fill="#000000" stroke="#000000" points="749.5001,-140.9909 753,-150.991 756.5001,-140.991 749.5001,-140.9909"/>
</g>
<!-- AppComponent  -->
<g id="node8" class="node">
<title>AppComponent </title>
<polygon fill="#80b1d3" stroke="#000000" points="807.439,-252 698.561,-252 698.561,-216 807.439,-216 807.439,-252"/>
<text text-anchor="middle" x="753" y="-229.8" font-family="Times,serif" font-size="14.00" fill="#000000">AppComponent </text>
</g>
<!-- AppModule&#45;&gt;AppComponent  -->
<g id="edge7" class="edge">
<title>AppModule&#45;&gt;AppComponent </title>
<path fill="none" stroke="#000000" stroke-dasharray="1,5" d="M753,-187.1061C753,-187.1061 753,-205.991 753,-205.991"/>
<polygon fill="#000000" stroke="#000000" points="749.5001,-205.9909 753,-215.991 756.5001,-205.991 749.5001,-205.9909"/>
</g>
<!-- AppRoutingModule -->
<g id="node7" class="node">
<title>AppRoutingModule</title>
<polygon fill="#8dd3c7" stroke="#000000" points="652.2744,-122 649.2744,-126 628.2744,-126 625.2744,-122 523.7256,-122 523.7256,-86 652.2744,-86 652.2744,-122"/>
<text text-anchor="middle" x="588" y="-99.8" font-family="Times,serif" font-size="14.00" fill="#000000">AppRoutingModule</text>
</g>
<!-- AppRoutingModule&#45;&gt;AppModule -->
<g id="edge6" class="edge">
<title>AppRoutingModule&#45;&gt;AppModule</title>
<path fill="none" stroke="#000000" d="M588,-122.0091C588,-138.0494 588,-159 588,-159 588,-159 700.9366,-159 700.9366,-159"/>
<polygon fill="#000000" stroke="#000000" points="700.9366,-162.5001 710.9366,-159 700.9366,-155.5001 700.9366,-162.5001"/>
</g>
<!-- AuthGuard -->
<g id="node9" class="node">
<title>AuthGuard</title>
<ellipse fill="#fdb462" stroke="#000000" cx="446" cy="-104" rx="54.4566" ry="18"/>
<text text-anchor="middle" x="446" y="-99.8" font-family="Times,serif" font-size="14.00" fill="#000000">AuthGuard</text>
</g>
<!-- AuthGuard&#45;&gt;AppModule -->
<g id="edge8" class="edge">
<title>AuthGuard&#45;&gt;AppModule</title>
<path fill="none" stroke="#000000" d="M446,-122.2667C446,-140.5552 446,-166 446,-166 446,-166 701.2771,-166 701.2771,-166"/>
<polygon fill="#000000" stroke="#000000" points="701.2771,-169.5001 711.2771,-166 701.2771,-162.5001 701.2771,-169.5001"/>
</g>
<!-- Authentication -->
<g id="node10" class="node">
<title>Authentication</title>
<ellipse fill="#fdb462" stroke="#000000" cx="305" cy="-104" rx="68.3575" ry="18"/>
<text text-anchor="middle" x="305" y="-99.8" font-family="Times,serif" font-size="14.00" fill="#000000">Authentication</text>
</g>
<!-- Authentication&#45;&gt;AppModule -->
<g id="edge9" class="edge">
<title>Authentication&#45;&gt;AppModule</title>
<path fill="none" stroke="#000000" d="M305,-122.1289C305,-142.5724 305,-173 305,-173 305,-173 701.2555,-173 701.2555,-173"/>
<polygon fill="#000000" stroke="#000000" points="701.2556,-176.5001 711.2555,-173 701.2555,-169.5001 701.2556,-176.5001"/>
</g>
<!-- AuthenticationService -->
<g id="node11" class="node">
<title>AuthenticationService</title>
<ellipse fill="#fdb462" stroke="#000000" cx="121" cy="-104" rx="97.2683" ry="18"/>
<text text-anchor="middle" x="121" y="-99.8" font-family="Times,serif" font-size="14.00" fill="#000000">AuthenticationService</text>
</g>
<!-- AuthenticationService&#45;&gt;AppModule -->
<g id="edge10" class="edge">
<title>AuthenticationService&#45;&gt;AppModule</title>
<path fill="none" stroke="#000000" d="M121,-122.0109C121,-144.4852 121,-180 121,-180 121,-180 701.0433,-180 701.0433,-180"/>
<polygon fill="#000000" stroke="#000000" points="701.0433,-183.5001 711.0433,-180 701.0432,-176.5001 701.0433,-183.5001"/>
</g>
<!-- AuthenticationComponent -->
<g id="node12" class="node">
<title>AuthenticationComponent</title>
<polygon fill="#ffffb3" stroke="#000000" points="1785.0365,-122 1620.9635,-122 1620.9635,-86 1785.0365,-86 1785.0365,-122"/>
<text text-anchor="middle" x="1703" y="-99.8" font-family="Times,serif" font-size="14.00" fill="#000000">AuthenticationComponent</text>
</g>
<!-- AuthenticationModule -->
<g id="node13" class="node">
<title>AuthenticationModule</title>
<polygon fill="#8dd3c7" stroke="#000000" points="1674.2534,-187 1671.2534,-191 1650.2534,-191 1647.2534,-187 1531.7466,-187 1531.7466,-151 1674.2534,-151 1674.2534,-187"/>
<text text-anchor="middle" x="1603" y="-164.8" font-family="Times,serif" font-size="14.00" fill="#000000">AuthenticationModule</text>
</g>
<!-- AuthenticationComponent&#45;&gt;AuthenticationModule -->
<g id="edge11" class="edge">
<title>AuthenticationComponent&#45;&gt;AuthenticationModule</title>
<path fill="none" stroke="#000000" d="M1647.5543,-122.1061C1647.5543,-122.1061 1647.5543,-140.991 1647.5543,-140.991"/>
<polygon fill="#000000" stroke="#000000" points="1644.0544,-140.9909 1647.5543,-150.991 1651.0544,-140.991 1644.0544,-140.9909"/>
</g>
<!-- AuthenticationRoutingModule -->
<g id="node14" class="node">
<title>AuthenticationRoutingModule</title>
<polygon fill="#8dd3c7" stroke="#000000" points="1596.871,-122 1593.871,-126 1572.871,-126 1569.871,-122 1409.129,-122 1409.129,-86 1596.871,-86 1596.871,-122"/>
<text text-anchor="middle" x="1503" y="-99.8" font-family="Times,serif" font-size="14.00" fill="#000000">AuthenticationRoutingModule</text>
</g>
<!-- AuthenticationRoutingModule&#45;&gt;AuthenticationModule -->
<g id="edge12" class="edge">
<title>AuthenticationRoutingModule&#45;&gt;AuthenticationModule</title>
<path fill="none" stroke="#000000" d="M1564.2795,-122.1061C1564.2795,-122.1061 1564.2795,-140.991 1564.2795,-140.991"/>
<polygon fill="#000000" stroke="#000000" points="1560.7795,-140.9909 1564.2795,-150.991 1567.7795,-140.991 1560.7795,-140.9909"/>
</g>
<!-- ReadBoardComponent -->
<g id="node15" class="node">
<title>ReadBoardComponent</title>
<polygon fill="#ffffb3" stroke="#000000" points="2325.3103,-187 2180.6897,-187 2180.6897,-151 2325.3103,-151 2325.3103,-187"/>
<text text-anchor="middle" x="2253" y="-164.8" font-family="Times,serif" font-size="14.00" fill="#000000">ReadBoardComponent</text>
</g>
<!-- ReadBoardModule -->
<g id="node17" class="node">
<title>ReadBoardModule</title>
<polygon fill="#8dd3c7" stroke="#000000" points="2232.0283,-252 2229.0283,-256 2208.0283,-256 2205.0283,-252 2109.9717,-252 2109.9717,-216 2232.0283,-216 2232.0283,-252"/>
<text text-anchor="middle" x="2171" y="-229.8" font-family="Times,serif" font-size="14.00" fill="#000000">ReadBoardModule</text>
</g>
<!-- ReadBoardComponent&#45;&gt;ReadBoardModule -->
<g id="edge13" class="edge">
<title>ReadBoardComponent&#45;&gt;ReadBoardModule</title>
<path fill="none" stroke="#000000" d="M2206.5544,-187.1061C2206.5544,-187.1061 2206.5544,-205.991 2206.5544,-205.991"/>
<polygon fill="#000000" stroke="#000000" points="2203.0544,-205.9909 2206.5544,-215.991 2210.0544,-205.991 2203.0544,-205.9909"/>
</g>
<!-- StoryBoardComponent -->
<g id="node16" class="node">
<title>StoryBoardComponent</title>
<polygon fill="#ffffb3" stroke="#000000" points="2162.8781,-187 2017.1219,-187 2017.1219,-151 2162.8781,-151 2162.8781,-187"/>
<text text-anchor="middle" x="2090" y="-164.8" font-family="Times,serif" font-size="14.00" fill="#000000">StoryBoardComponent</text>
</g>
<!-- StoryBoardComponent&#45;&gt;ReadBoardModule -->
<g id="edge15" class="edge">
<title>StoryBoardComponent&#45;&gt;ReadBoardModule</title>
<path fill="none" stroke="#000000" d="M2136.3377,-187.1061C2136.3377,-187.1061 2136.3377,-205.991 2136.3377,-205.991"/>
<polygon fill="#000000" stroke="#000000" points="2132.8377,-205.9909 2136.3377,-215.991 2139.8377,-205.991 2132.8377,-205.9909"/>
</g>
<!-- ReadBoardService -->
<g id="node18" class="node">
<title>ReadBoardService</title>
<ellipse fill="#fdb462" stroke="#000000" cx="2253" cy="-104" rx="83.3654" ry="18"/>
<text text-anchor="middle" x="2253" y="-99.8" font-family="Times,serif" font-size="14.00" fill="#000000">ReadBoardService</text>
</g>
<!-- ReadBoardService&#45;&gt;ReadBoardComponent -->
<g id="edge14" class="edge">
<title>ReadBoardService&#45;&gt;ReadBoardComponent</title>
<path fill="none" stroke="#000000" d="M2253,-122.1061C2253,-122.1061 2253,-140.991 2253,-140.991"/>
<polygon fill="#000000" stroke="#000000" points="2249.5001,-140.9909 2253,-150.991 2256.5001,-140.991 2249.5001,-140.9909"/>
</g>
<!-- ReadBoardService&#45;&gt;ReadBoardModule -->
<g id="edge17" class="edge">
<title>ReadBoardService&#45;&gt;ReadBoardModule</title>
<path fill="none" stroke="#000000" d="M2175.2062,-110.6254C2175.2062,-110.6254 2175.2062,-205.6885 2175.2062,-205.6885"/>
<polygon fill="#000000" stroke="#000000" points="2171.7063,-205.6885 2175.2062,-215.6885 2178.7063,-205.6886 2171.7063,-205.6885"/>
</g>
<!-- ReadBoardRoutingModule -->
<g id="node19" class="node">
<title>ReadBoardRoutingModule</title>
<polygon fill="#8dd3c7" stroke="#000000" points="1992.6456,-187 1989.6456,-191 1968.6456,-191 1965.6456,-187 1825.3544,-187 1825.3544,-151 1992.6456,-151 1992.6456,-187"/>
<text text-anchor="middle" x="1909" y="-164.8" font-family="Times,serif" font-size="14.00" fill="#000000">ReadBoardRoutingModule</text>
</g>
<!-- ReadBoardRoutingModule&#45;&gt;ReadBoardModule -->
<g id="edge16" class="edge">
<title>ReadBoardRoutingModule&#45;&gt;ReadBoardModule</title>
<path fill="none" stroke="#000000" d="M1909,-187.1061C1909,-206.3391 1909,-234 1909,-234 1909,-234 2099.9033,-234 2099.9033,-234"/>
<polygon fill="#000000" stroke="#000000" points="2099.9033,-237.5001 2109.9033,-234 2099.9033,-230.5001 2099.9033,-237.5001"/>
</g>
<!-- WriteBoardComponent -->
<g id="node20" class="node">
<title>WriteBoardComponent</title>
<polygon fill="#ffffb3" stroke="#000000" points="2718.9158,-122 2571.0842,-122 2571.0842,-86 2718.9158,-86 2718.9158,-122"/>
<text text-anchor="middle" x="2645" y="-99.8" font-family="Times,serif" font-size="14.00" fill="#000000">WriteBoardComponent</text>
</g>
<!-- WriteBoardModule -->
<g id="node21" class="node">
<title>WriteBoardModule</title>
<polygon fill="#8dd3c7" stroke="#000000" points="2615.6331,-187 2612.6331,-191 2591.6331,-191 2588.6331,-187 2490.3669,-187 2490.3669,-151 2615.6331,-151 2615.6331,-187"/>
<text text-anchor="middle" x="2553" y="-164.8" font-family="Times,serif" font-size="14.00" fill="#000000">WriteBoardModule</text>
</g>
<!-- WriteBoardComponent&#45;&gt;WriteBoardModule -->
<g id="edge18" class="edge">
<title>WriteBoardComponent&#45;&gt;WriteBoardModule</title>
<path fill="none" stroke="#000000" d="M2593.5544,-122.1061C2593.5544,-122.1061 2593.5544,-140.991 2593.5544,-140.991"/>
<polygon fill="#000000" stroke="#000000" points="2590.0544,-140.9909 2593.5544,-150.991 2597.0544,-140.991 2590.0544,-140.9909"/>
</g>
<!-- WriteBoardRoutingModule -->
<g id="node22" class="node">
<title>WriteBoardRoutingModule</title>
<polygon fill="#8dd3c7" stroke="#000000" points="2547.2506,-122 2544.2506,-126 2523.2506,-126 2520.2506,-122 2376.7494,-122 2376.7494,-86 2547.2506,-86 2547.2506,-122"/>
<text text-anchor="middle" x="2462" y="-99.8" font-family="Times,serif" font-size="14.00" fill="#000000">WriteBoardRoutingModule</text>
</g>
<!-- WriteBoardRoutingModule&#45;&gt;WriteBoardModule -->
<g id="edge19" class="edge">
<title>WriteBoardRoutingModule&#45;&gt;WriteBoardModule</title>
<path fill="none" stroke="#000000" d="M2518.7795,-122.1061C2518.7795,-122.1061 2518.7795,-140.991 2518.7795,-140.991"/>
<polygon fill="#000000" stroke="#000000" points="2515.2795,-140.9909 2518.7795,-150.991 2522.2795,-140.991 2515.2795,-140.9909"/>
</g>
</g>
</svg>
